<svg width="38" height="38" viewBox="0 0 38 38" fill="none" xmlns="http://www.w3.org/2000/svg">
<path d="M35.3553 18.2828V14.5978C35.3588 14.5543 35.3588 14.5075 35.3588 14.464C35.3448 13.7042 35.0452 12.9846 34.4912 12.4391C33.9476 11.9069 33.2089 11.6258 32.4423 11.5957C32.3203 11.5923 32.1984 11.5957 32.0764 11.5957H29.3516C29.5711 11.1873 29.7488 10.7455 29.8603 10.3037C30.0102 9.72473 30.0868 9.1022 30.0485 8.5031C29.9718 7.33503 29.6025 6.16026 28.8603 5.21977C28.6408 4.94198 28.4247 4.66753 28.1669 4.4232C27.9056 4.17553 27.6094 3.95798 27.3132 3.74713C26.8254 3.40239 26.2748 3.16141 25.7069 2.96395C24.5431 2.55897 23.1981 2.54223 22.0099 2.84346C21.4315 2.99072 20.853 3.22501 20.3443 3.52623C19.8565 3.81741 19.3861 4.16884 18.9923 4.58051C18.4348 4.00484 17.7728 3.52958 17.0201 3.21496C16.6717 3.07105 16.3302 2.93048 15.9644 2.84011C15.5915 2.74974 15.2048 2.70289 14.8249 2.66272C14.1977 2.59913 13.5566 2.66942 12.9433 2.78991C12.351 2.9037 11.7691 3.13129 11.2429 3.40574C10.7203 3.67684 10.2324 4.03831 9.81432 4.43994C9.39618 4.84157 9.01986 5.31349 8.73762 5.81218C8.4519 6.31756 8.21496 6.87984 8.093 7.44547C7.8247 8.70392 7.92923 9.97909 8.44841 11.1639C8.51462 11.3112 8.58431 11.4551 8.65748 11.5957H5.60511C5.59814 11.5957 5.59465 11.5957 5.58768 11.5957C5.57375 11.5957 5.55981 11.5957 5.54936 11.5957C5.5389 11.5957 5.53193 11.5957 5.52496 11.5957C4.99533 11.6157 4.45176 11.7563 4.01272 12.0475C3.42036 12.4424 3.03359 12.9378 2.78619 13.5804C2.65727 13.9184 2.63636 14.2832 2.63636 14.6414V19.3103C2.63984 20.0768 2.93602 20.8198 3.50399 21.3653C3.84198 21.69 4.25314 21.9243 4.69915 22.0581V31.0045C4.69915 31.4998 4.69567 31.9951 4.69915 32.4905C4.70264 32.7951 4.74096 33.1197 4.85595 33.4076C5.03017 33.8393 5.24621 34.2409 5.60859 34.5589C5.97794 34.8802 6.34381 35.0844 6.81421 35.2383C7.12781 35.3421 7.47277 35.3622 7.80379 35.3622H29.6931C30.1983 35.3622 30.7245 35.3889 31.2088 35.2149C31.6618 35.0509 32.0764 34.84 32.4144 34.4953C32.7559 34.1506 32.9615 33.7891 33.1287 33.344C33.2298 33.0729 33.2577 32.7683 33.2611 32.4838V22.0615C33.4145 22.0146 33.5643 21.9544 33.7281 21.8874C34.2124 21.6833 34.5783 21.3051 34.8779 20.8968C35.188 20.475 35.3205 19.9529 35.3518 19.4442C35.3762 19.0593 35.3553 18.6677 35.3553 18.2828ZM20.7415 8.78759C20.7415 8.76081 20.7415 8.73404 20.7415 8.70392C20.745 8.60686 20.7485 8.5098 20.7555 8.41273C20.8008 8.1751 20.8705 7.94082 20.9541 7.70988C21.0656 7.48898 21.1945 7.27478 21.3409 7.07397C21.5046 6.89323 21.6789 6.72254 21.867 6.56858C22.0796 6.42801 22.3026 6.30083 22.5325 6.19373C22.7695 6.11005 23.0134 6.04646 23.2608 6.00295C23.5221 5.98287 23.7869 5.98287 24.0483 6.00295C24.2957 6.04646 24.5431 6.1134 24.78 6.19373C24.78 6.19373 24.78 6.19373 24.7835 6.19373C25.0135 6.30083 25.2365 6.42466 25.4455 6.56523C25.6337 6.72254 25.8114 6.88988 25.9717 7.07062C26.1145 7.26809 26.2435 7.47894 26.3515 7.69649C26.4421 7.93078 26.5083 8.1751 26.5571 8.42278C26.578 8.67045 26.578 8.92147 26.5571 9.16914C26.5118 9.41012 26.4421 9.64775 26.355 9.87534C26.2435 10.0996 26.1145 10.3104 25.9647 10.5146C25.8009 10.6987 25.6232 10.8694 25.4316 11.0267C25.226 11.1639 25.0065 11.2877 24.78 11.3915C24.78 11.3915 24.78 11.3915 24.7765 11.3915C24.773 11.3915 24.7765 11.3915 24.773 11.3915C24.5396 11.4718 24.2992 11.5354 24.0552 11.5823C23.9542 11.589 23.8566 11.5957 23.7556 11.599C23.5221 11.6057 23.2887 11.6024 23.0587 11.6024H20.7381L20.7415 8.78759ZM17.3512 26.4091V20.7562C17.3616 20.6792 17.3686 20.6022 17.3686 20.5252V14.9426C17.8773 14.9426 18.3861 14.9426 18.8948 14.9426H20.6196V20.3746C20.6161 20.4215 20.6126 20.4717 20.6126 20.5186V26.2585C20.6126 26.3389 20.6126 26.4225 20.6161 26.5062H17.3512C17.3512 26.4727 17.3512 26.4426 17.3512 26.4091ZM11.4276 8.40604C11.4729 8.16841 11.5426 7.93412 11.6262 7.70319C11.7377 7.48564 11.8632 7.27478 12.0095 7.07397C12.1733 6.88989 12.3545 6.71585 12.5461 6.55854C12.7517 6.42132 12.9677 6.30083 13.1907 6.19707C13.4381 6.11005 13.6925 6.04311 13.9538 5.99626C14.2117 5.97618 14.473 5.97618 14.7309 5.99626C14.9783 6.03977 15.2222 6.10671 15.4626 6.18703C15.6961 6.29413 15.9191 6.42132 16.1316 6.56189C16.3198 6.71585 16.494 6.88654 16.6543 7.06727C16.8006 7.27143 16.933 7.48564 17.0445 7.70988C17.1282 7.93078 17.1944 8.15837 17.2397 8.38931C17.2501 8.52318 17.2571 8.65371 17.2571 8.79094V11.599H15.0828C14.8284 11.599 14.5741 11.6024 14.3197 11.599C14.1908 11.5957 14.0619 11.5923 13.9329 11.5823C13.689 11.5388 13.4486 11.4752 13.2151 11.3948C12.9817 11.2877 12.7552 11.1606 12.5426 11.0166C12.3545 10.8627 12.1803 10.6953 12.0235 10.5146C11.8771 10.3104 11.7447 10.0962 11.6332 9.87534C11.6332 9.87534 11.6332 9.87534 11.6332 9.87199C11.6332 9.87199 11.6332 9.87199 11.6332 9.86865C11.5461 9.64106 11.4799 9.40342 11.4311 9.16579C11.4032 8.90808 11.4032 8.65706 11.4276 8.40604ZM6.77588 18.8518C6.59469 18.8518 6.4135 18.8585 6.22882 18.8618C6.18701 18.8652 6.14868 18.8719 6.11035 18.8819V15.0363C6.11035 15.0062 6.11035 14.9727 6.11035 14.9426H13.8772V18.8518H6.77588ZM29.714 32.0219H10.4171C9.67145 32.0219 8.92578 32.0253 8.18011 32.0253C8.1836 31.8077 8.19056 31.5935 8.19056 31.3793V22.1954H13.8737V26.6903C13.8737 26.8442 13.8702 26.9948 13.8841 27.1488C13.9469 27.8584 14.2152 28.5344 14.7622 29.0365C15.3093 29.5385 15.9922 29.8063 16.7449 29.8498C17.3686 29.8866 18.0028 29.8531 18.6265 29.8531H21.0098C21.8391 29.8531 22.6127 29.5921 23.212 29.0331C23.8009 28.4876 24.0971 27.7111 24.0971 26.9346V22.192H29.7906V31.1015C29.7906 31.4094 29.7941 31.714 29.7941 32.0219C29.7662 32.0219 29.7419 32.0219 29.714 32.0219ZM31.7559 18.8585C31.6478 18.8551 31.5468 18.8551 31.4423 18.8551H24.1005V14.9459H31.2088C31.4283 14.9459 31.6513 14.9359 31.8743 14.9359V18.8016C31.8743 18.8217 31.8743 18.8451 31.8743 18.8652C31.836 18.8618 31.7942 18.8618 31.7559 18.8585Z" fill="#FF94C1"/>
</svg>
