<svg width="46" height="46" viewBox="0 0 46 46" fill="none" xmlns="http://www.w3.org/2000/svg">
<rect width="46" height="46" rx="8" fill="#272A38"/>
<path d="M25.146 18.1273C25.146 18.5378 25.2931 18.9484 25.6084 19.2509L27.6887 21.3902H20.0397C19.1781 21.3902 18.5056 22.1032 18.5056 22.9676C18.5056 23.8319 19.1991 24.545 20.0397 24.545H27.7097L25.6294 26.6843C25.02 27.3109 25.02 28.3049 25.6294 28.9316C26.2388 29.5582 27.2054 29.5582 27.8148 28.9316L32.5429 24.0696C33.1523 23.443 33.1523 22.449 32.5429 21.8223L27.7938 17.0036C27.1844 16.377 26.2178 16.377 25.6084 17.0036C25.3142 17.3277 25.146 17.7383 25.146 18.1273Z" fill="#575D70"/>
<path d="M20.2288 30.4226C20.2288 29.5366 19.5353 28.8451 18.6948 28.8451H16.089V17.1549H18.6948C19.5563 17.1549 20.2288 16.4418 20.2288 15.5774C20.2288 14.7131 19.5353 14 18.6948 14H14.534C13.6724 14 13 14.7131 13 15.5774V30.4226C13 31.3085 13.6935 32 14.534 32H18.6948C19.5563 32 20.2288 31.2869 20.2288 30.4226Z" fill="#575D70"/>
</svg>
