<svg width="20" height="20" viewBox="0 0 20 20" fill="none" xmlns="http://www.w3.org/2000/svg">
<path d="M15.5509 1.81818H4.44925C2.97332 1.81818 1.81824 2.97326 1.81824 4.38503V15.5508C1.81824 16.9626 2.97332 18.1818 4.44925 18.1818H10.6097V11.8289H8.49203V9.39038H10.6097V7.52941C10.6097 5.41177 11.8931 4.25669 13.7541 4.25669C14.6525 4.25669 15.4225 4.32086 15.6792 4.38503V6.56685H14.3958C13.369 6.56685 13.1765 7.08021 13.1765 7.7861V9.39038H15.615L15.2942 11.8289H13.1765V18.1818H15.615C17.0268 18.1818 18.1819 17.0267 18.1819 15.5508V4.38503C18.1819 2.97326 17.0268 1.81818 15.5509 1.81818Z" fill="#575D70"/>
</svg>
