<svg width="20" height="20" viewBox="0 0 20 20" fill="none" xmlns="http://www.w3.org/2000/svg">
<path fill-rule="evenodd" clip-rule="evenodd" d="M18.1624 14.6364C18.104 15.2792 18.0066 15.7273 17.7728 16.1948C17.3247 17.1104 16.526 17.7727 15.5325 18.026C15.1819 18.1234 14.8507 18.1623 14.3053 18.1818C14.1104 18.1818 12.0455 18.1818 9.98058 18.1818C7.91564 18.1818 5.85071 18.1818 5.6559 18.1623C5.16889 18.1429 4.79876 18.0844 4.46759 18.0065C3.49356 17.7532 2.67538 17.0714 2.22733 16.1753C1.99356 15.7078 1.89616 15.2792 1.83772 14.5974C1.81824 14.4026 1.81824 13.4091 1.81824 10C1.81824 8.85065 1.81824 7.99351 1.81824 7.33117C1.81824 5.38312 1.83772 5.3052 1.89616 4.91558C2.01304 4.13636 2.32473 3.45455 2.85071 2.92857C3.14291 2.63636 3.41564 2.42208 3.78577 2.24675C4.2533 2.01299 4.70135 1.8961 5.40265 1.83766C5.59746 1.81818 6.59097 1.81818 10.0001 1.81818H12.6689C14.6169 1.81818 14.6949 1.83766 15.0845 1.8961C15.8637 2.01299 16.526 2.32468 17.0715 2.85065C17.3832 3.14286 17.578 3.43507 17.7728 3.8052C18.0066 4.27273 18.1234 4.72078 18.1624 5.36364C18.1819 5.5 18.1819 7.74026 18.1819 10C18.1819 12.2403 18.1819 14.4805 18.1624 14.6364ZM16.0001 7.50649C15.9611 6.86364 15.8637 6.41559 15.7273 6.04546C15.5715 5.65584 15.3572 5.3052 15.026 4.97403C14.6949 4.64286 14.3637 4.42857 13.9546 4.27273C13.565 4.11688 13.1364 4.01948 12.4936 4C11.8507 3.96104 11.6364 3.96104 10.0001 3.96104C8.36369 3.96104 8.14941 3.96104 7.50655 4C6.86369 4.03896 6.41564 4.13636 6.04551 4.27273C5.6559 4.42857 5.30525 4.64286 4.97408 4.97403C4.64291 5.3052 4.42863 5.65584 4.27278 6.04546C4.11694 6.43507 4.01954 6.86364 4.00006 7.50649C3.96109 8.14935 3.96109 8.36364 3.96109 10C3.96109 11.6364 3.96109 11.8507 4.00006 12.4935C4.03902 13.1364 4.13642 13.5844 4.27278 13.9545C4.42863 14.3442 4.64291 14.6948 4.97408 15.026C5.30525 15.3571 5.6559 15.5714 6.04551 15.7273C6.43512 15.8831 6.86369 15.9805 7.50655 16C8.14941 16.039 8.36369 16.039 10.0001 16.039C11.6364 16.039 11.8507 16.039 12.4936 16C13.1364 15.961 13.5845 15.8636 13.9546 15.7273C14.3442 15.5714 14.6949 15.3571 15.026 15.026C15.3572 14.6948 15.5715 14.3442 15.7273 13.9545C15.8832 13.5649 15.9806 13.1364 16.0001 12.4935C16.039 11.8507 16.039 11.6364 16.039 10C16.039 8.36364 16.039 8.14935 16.0001 7.50649ZM14.7143 13.5649C14.5975 13.8377 14.4806 14.052 14.2663 14.2662C14.052 14.4805 13.8572 14.6169 13.565 14.7143C13.3507 14.7922 13.039 14.8896 12.4351 14.9286C11.7923 14.9481 11.5975 14.9675 10.0001 14.9675C8.38317 14.9675 8.18837 14.9675 7.56499 14.9286C6.98058 14.9091 6.64941 14.8117 6.43512 14.7143C6.16239 14.5974 5.94811 14.4805 5.73382 14.2662C5.51954 14.052 5.38317 13.8571 5.28577 13.5649C5.20785 13.3507 5.11045 13.039 5.07148 12.4351C5.052 11.7922 5.03252 11.5974 5.03252 10C5.03252 8.4026 5.03252 8.18831 5.07148 7.56494C5.09097 6.98052 5.18837 6.64935 5.28577 6.43507C5.40265 6.16234 5.51954 5.94805 5.73382 5.73377C5.94811 5.51948 6.14291 5.38312 6.43512 5.28571C6.64941 5.20779 6.9611 5.11039 7.56499 5.07143C8.12993 5.05195 8.34421 5.03247 9.4546 5.03247C9.61045 5.03247 9.78577 5.03247 10.0001 5.03247C11.6169 5.03247 11.8117 5.03247 12.4351 5.07143C13.0195 5.09091 13.3507 5.18831 13.565 5.28571C13.8377 5.4026 14.052 5.51948 14.2663 5.73377C14.4806 5.94805 14.6169 6.14286 14.7143 6.43507C14.7923 6.64935 14.8897 6.96104 14.9286 7.56494C14.9481 8.20779 14.9676 8.4026 14.9676 10C14.9676 11.6169 14.9676 11.8117 14.9286 12.4351C14.8897 13.039 14.7923 13.3507 14.7143 13.5649ZM10.0001 6.9026C8.28577 6.9026 6.90265 8.28572 6.90265 10C6.90265 11.7143 8.28577 13.0974 10.0001 13.0974C11.7143 13.0974 13.0975 11.7143 13.0975 10C13.0975 8.28572 11.7143 6.9026 10.0001 6.9026ZM13.2143 6.04546C12.8053 6.04546 12.4936 6.37662 12.4936 6.76623C12.4936 7.17533 12.8247 7.48701 13.2143 7.48701C13.6234 7.48701 13.9351 7.15585 13.9351 6.76623C13.9546 6.37662 13.6234 6.04546 13.2143 6.04546ZM10.0001 12.0065C8.88967 12.0065 7.99356 11.1104 7.99356 10C7.99356 8.88961 8.88967 7.99351 10.0001 7.99351C11.1104 7.99351 12.0065 8.88961 12.0065 10C12.0065 11.1104 11.1104 12.0065 10.0001 12.0065Z" fill="#575D70"/>
</svg>
