<svg width="71" height="80" viewBox="0 0 71 80" fill="none" xmlns="http://www.w3.org/2000/svg">
<path d="M60.8526 23.3076C60.7326 22.7124 60.1977 22.2433 59.5905 22.2433V22.2433C52.2158 22.2433 44.8412 22.2433 37.4666 22.3086C36.9536 22.3739 36.5047 22.7004 36.2482 23.1574C33.3807 28.1527 33.3626 28.1843 35.6905 33.4371C35.7193 33.5022 35.7651 33.5752 35.7853 33.6435V33.6435C35.8209 33.7637 35.9185 33.8381 36.0159 33.917C36.4268 34.2494 36.8826 34.7132 37.3384 34.7132C39.9676 34.7785 42.5968 34.7785 45.2901 34.7785H46.4802C47.2622 34.7785 47.7272 35.5747 47.2781 36.2148V36.2148C43.6869 40.0668 39.2622 42.2865 34.0037 42.0254C28.5439 41.7698 25.0469 38.3189 22.0173 34.2004C21.8852 34.0208 21.7373 33.853 21.5868 33.6886C19.9274 31.876 19.548 29.3851 18.3208 29.0747C17.5406 28.8774 15.3293 27.9079 12.9209 26.8886C10.5828 25.8992 8.03508 27.4383 8.33097 29.9598C9.10279 36.5369 12.9398 44.3462 20.5371 49.1417C30.2844 55.4093 42.7892 54.5605 51.7028 47.1831C59.4105 40.6438 62.2748 30.3618 60.8526 23.3076ZM27.7834 14.5394C29.8355 13.6907 32.0158 12.9726 34.1961 12.842C39.0386 12.5204 43.017 14.2222 46.2022 17.6224C47.4691 18.9747 49.3954 19.6158 51.1231 18.9458L55.1417 17.3872C57.2316 16.5766 58.2723 14.1846 57.1019 12.2728C52.2161 4.292 43.2605 -0.525022 33.619 0.0456743C26.3205 0.417202 20.2934 3.20501 15.4688 8.33894C13.7083 10.2124 14.6549 13.0379 17.0396 13.9985C17.6002 14.2243 18.1461 14.4649 18.6774 14.7353C21.8196 16.3022 24.7053 15.8452 27.7834 14.5394ZM21.3066 19.0443C21.5542 19.1451 21.9165 18.8955 22.2459 18.6864C22.4062 18.5847 22.493 18.3916 22.4477 18.2072V18.2072C22.4158 18.0772 22.3223 17.9711 22.1973 17.923C18.8651 16.6403 15.5328 15.2974 12.2005 14.0171C11.9122 13.9193 11.5159 14.0781 11.1465 14.2187C10.9416 14.2967 10.8053 14.5017 10.8267 14.7198V14.7198C10.8434 14.8897 10.9536 15.0359 11.1123 15.0987C14.4921 16.4356 17.9298 17.771 21.3066 19.0443ZM8.93006 23.4185C12.2644 24.7636 15.6606 26.1087 19.0578 27.3921C19.1792 27.4379 19.3159 27.4142 19.4148 27.3303V27.3303C19.5452 27.2197 19.5789 27.0321 19.5098 26.8757C19.3277 26.4629 19.1846 26.0063 18.8698 25.8994C15.5955 24.5532 12.1975 23.2699 8.85804 21.9878C8.74197 21.9432 8.61168 21.9563 8.50678 22.023V22.023C8.31813 22.1431 8.26652 22.3978 8.36857 22.5967C8.5562 22.9626 8.68856 23.3202 8.93006 23.4185ZM10.6615 17.9997C13.6113 19.1096 16.6253 20.2847 19.5752 21.4599V21.4599C20.8045 21.9963 20.0969 20.1618 18.8457 19.6784L12.3679 17.1755C11.1168 16.6921 9.39134 17.5686 10.6615 17.9997V17.9997ZM9.57133 20.6112C12.8431 21.9564 16.1149 23.2387 19.3866 24.4582C19.5031 24.5016 19.6338 24.4786 19.7286 24.3982V24.3982C19.8607 24.2861 19.8896 24.092 19.818 23.9342C19.6416 23.5458 19.498 23.0659 19.1904 22.9615C15.9661 21.6742 12.7417 20.4503 9.57885 19.1648C9.49201 19.1295 9.39462 19.1307 9.30871 19.1682V19.1682C9.13434 19.2443 9.05157 19.4474 9.10491 19.63C9.22631 20.0456 9.32004 20.5088 9.57133 20.6112Z" fill="url(#paint0_linear_2_2690)"/>
<path d="M13.0159 79.7773H12.5619L11.7315 78.497C11.3845 78.9572 10.9638 79.3246 10.4692 79.5992C9.9746 79.8664 9.42466 80 8.81935 80H7.98891C7.45004 80 6.9407 79.8998 6.46088 79.6994C5.98845 79.4916 5.57507 79.2095 5.22075 78.8533C4.86642 78.497 4.58592 78.0814 4.37923 77.6064C4.17992 77.1314 4.08027 76.6229 4.08027 76.0811V67.5086C4.08027 66.9668 4.17992 66.4584 4.37923 65.9834C4.58592 65.5084 4.86642 65.0927 5.22075 64.7365C5.57507 64.3802 5.98845 64.1019 6.46088 63.9015C6.9407 63.6937 7.45004 63.5897 7.98891 63.5897H9.11831C9.65718 63.5897 10.1628 63.6937 10.6353 63.9015C11.1077 64.1019 11.5211 64.3802 11.8754 64.7365C12.2297 65.0927 12.5065 65.5084 12.7058 65.9834C12.9125 66.4584 13.0159 66.9668 13.0159 67.5086V68.1543L11.5875 68.377V67.5086C11.5875 67.1524 11.5211 66.8221 11.3882 66.5178C11.2553 66.206 11.0745 65.9351 10.8456 65.705C10.6168 65.475 10.3474 65.2931 10.0373 65.1595C9.73469 65.0259 9.4062 64.9591 9.05188 64.9591H8.05534C7.70102 64.9591 7.36884 65.0259 7.0588 65.1595C6.75615 65.2931 6.48672 65.475 6.2505 65.705C6.02167 65.9351 5.84081 66.206 5.70794 66.5178C5.57507 66.8221 5.50863 67.1524 5.50863 67.5086V76.0811C5.50863 76.4374 5.57507 76.7714 5.70794 77.0831C5.84081 77.3874 6.02167 77.6583 6.2505 77.8958C6.48672 78.1259 6.75615 78.3078 7.0588 78.4414C7.36884 78.575 7.70102 78.6418 8.05534 78.6418H9.05188C9.4062 78.6418 9.73469 78.575 10.0373 78.4414C10.3474 78.3078 10.6168 78.1259 10.8456 77.8958C11.0745 77.6583 11.2553 77.3874 11.3882 77.0831C11.5211 76.7714 11.5875 76.4374 11.5875 76.0811V72.7523H9.05188V71.3829H13.0159V79.7773Z" fill="url(#paint1_linear_2_2690)"/>
<path d="M23.7687 79.7773H23.3148L22.4843 78.497C22.1374 78.9572 21.7166 79.3246 21.222 79.5992C20.7275 79.8664 20.1775 80 19.5722 80H18.7418C18.2029 80 17.6936 79.8998 17.2137 79.6994C16.7413 79.4916 16.3279 79.2095 15.9736 78.8533C15.6193 78.497 15.3388 78.0814 15.1321 77.6064C14.9328 77.1314 14.8331 76.6229 14.8331 76.0811V67.5086C14.8331 66.9668 14.9328 66.4584 15.1321 65.9834C15.3388 65.5084 15.6193 65.0927 15.9736 64.7365C16.3279 64.3802 16.7413 64.1019 17.2137 63.9015C17.6936 63.6937 18.2029 63.5897 18.7418 63.5897H19.8712C20.41 63.5897 20.9157 63.6937 21.3881 63.9015C21.8606 64.1019 22.2739 64.3802 22.6283 64.7365C22.9826 65.0927 23.2594 65.5084 23.4587 65.9834C23.6654 66.4584 23.7687 66.9668 23.7687 67.5086V68.1543L22.3404 68.377V67.5086C22.3404 67.1524 22.2739 66.8221 22.1411 66.5178C22.0082 66.206 21.8273 65.9351 21.5985 65.705C21.3697 65.475 21.1002 65.2931 20.7902 65.1595C20.4875 65.0259 20.1591 64.9591 19.8047 64.9591H18.8082C18.4539 64.9591 18.1217 65.0259 17.8117 65.1595C17.509 65.2931 17.2396 65.475 17.0034 65.705C16.7745 65.9351 16.5937 66.206 16.4608 66.5178C16.3279 66.8221 16.2615 67.1524 16.2615 67.5086V76.0811C16.2615 76.4374 16.3279 76.7714 16.4608 77.0831C16.5937 77.3874 16.7745 77.6583 17.0034 77.8958C17.2396 78.1259 17.509 78.3078 17.8117 78.4414C18.1217 78.575 18.4539 78.6418 18.8082 78.6418H19.8047C20.1591 78.6418 20.4875 78.575 20.7902 78.4414C21.1002 78.3078 21.3697 78.1259 21.5985 77.8958C21.8273 77.6583 22.0082 77.3874 22.1411 77.0831C22.2739 76.7714 22.3404 76.4374 22.3404 76.0811V72.7523H19.8047V71.3829H23.7687V79.7773Z" fill="url(#paint2_linear_2_2690)"/>
<path d="M34.7541 75.8585C34.7541 76.4003 34.6508 76.9087 34.4441 77.3837C34.2448 77.8587 33.968 78.2744 33.6136 78.6306C33.2593 78.9869 32.8422 79.2689 32.3624 79.4767C31.89 79.6771 31.3843 79.7773 30.8455 79.7773H25.8185V63.8124H30.8455C31.3843 63.8124 31.89 63.9163 32.3624 64.1241C32.8422 64.3245 33.2593 64.6029 33.6136 64.9591C33.968 65.3154 34.2448 65.7347 34.4441 66.2172C34.6508 66.6922 34.7541 67.2006 34.7541 67.7424V75.8585ZM33.3258 67.7424C33.3258 67.3861 33.2593 67.0559 33.1264 66.7516C32.9936 66.4398 32.809 66.1689 32.5728 65.9388C32.344 65.7013 32.0745 65.5158 31.7645 65.3822C31.4619 65.2486 31.1334 65.1818 30.779 65.1818H27.2469V78.408H30.779C31.1334 78.408 31.4619 78.3412 31.7645 78.2076C32.0745 78.074 32.344 77.8921 32.5728 77.662C32.809 77.432 32.9936 77.1648 33.1264 76.8605C33.2593 76.5487 33.3258 76.2147 33.3258 75.8585V67.7424Z" fill="url(#paint3_linear_2_2690)"/>
<path d="M44.2558 79.7773L39.9485 72.9639H37.9887V79.7773H36.5603V63.8124H41.5983C42.1372 63.8124 42.6429 63.9163 43.1153 64.1241C43.5877 64.3245 44.0011 64.6029 44.3554 64.9591C44.7097 65.3154 44.9866 65.7347 45.1859 66.2172C45.3926 66.6922 45.4959 67.2006 45.4959 67.7424V69.0339C45.4959 69.5757 45.3926 70.0878 45.1859 70.5702C44.9866 71.0452 44.7097 71.4609 44.3554 71.8171C44.0011 72.1734 43.5877 72.4554 43.1153 72.6633C42.6429 72.8637 42.1372 72.9639 41.5983 72.9639L45.9056 79.7773H44.2558ZM44.0675 67.7424C44.0675 67.3861 44.0011 67.0559 43.8682 66.7516C43.7354 66.4398 43.5545 66.1689 43.3257 65.9388C43.0968 65.7013 42.8274 65.5158 42.5174 65.3822C42.2147 65.2486 41.8862 65.1818 41.5319 65.1818H37.9887V71.5945H41.5319C41.8862 71.5945 42.2147 71.5277 42.5174 71.3941C42.8274 71.2605 43.0968 71.0786 43.3257 70.8486C43.5545 70.611 43.7354 70.3401 43.8682 70.0358C44.0011 69.7241 44.0675 69.3901 44.0675 69.0339V67.7424Z" fill="url(#paint4_linear_2_2690)"/>
<path d="M55.983 76.0811C55.983 76.6229 55.8797 77.1314 55.673 77.6064C55.4737 78.0814 55.1969 78.497 54.8425 78.8533C54.4882 79.2095 54.0748 79.4916 53.6024 79.6994C53.13 79.8998 52.6243 80 52.0855 80H50.956C50.4172 80 49.9078 79.8998 49.428 79.6994C48.9556 79.4916 48.5422 79.2095 48.1879 78.8533C47.8336 78.497 47.5531 78.0814 47.3464 77.6064C47.1471 77.1314 47.0474 76.6229 47.0474 76.0811V67.5086C47.0474 66.9668 47.1471 66.4584 47.3464 65.9834C47.5531 65.5084 47.8336 65.0927 48.1879 64.7365C48.5422 64.3802 48.9556 64.1019 49.428 63.9015C49.9078 63.6937 50.4172 63.5897 50.956 63.5897H52.0855C52.6243 63.5897 53.13 63.6937 53.6024 63.9015C54.0748 64.1019 54.4882 64.3802 54.8425 64.7365C55.1969 65.0927 55.4737 65.5084 55.673 65.9834C55.8797 66.4584 55.983 66.9668 55.983 67.5086V76.0811ZM54.5546 67.5086C54.5546 67.1524 54.4882 66.8221 54.3553 66.5178C54.2225 66.206 54.0416 65.9351 53.8128 65.705C53.5839 65.475 53.3145 65.2931 53.0045 65.1595C52.7018 65.0259 52.3733 64.9591 52.019 64.9591H51.0225C50.6682 64.9591 50.336 65.0259 50.0259 65.1595C49.7233 65.2931 49.4539 65.475 49.2176 65.705C48.9888 65.9351 48.808 66.206 48.6751 66.5178C48.5422 66.8221 48.4758 67.1524 48.4758 67.5086V76.0811C48.4758 76.4374 48.5422 76.7714 48.6751 77.0831C48.808 77.3874 48.9888 77.6583 49.2176 77.8958C49.4539 78.1259 49.7233 78.3078 50.0259 78.4414C50.336 78.575 50.6682 78.6418 51.0225 78.6418H52.019C52.3733 78.6418 52.7018 78.575 53.0045 78.4414C53.3145 78.3078 53.5839 78.1259 53.8128 77.8958C54.0416 77.6583 54.2225 77.3874 54.3553 77.0831C54.4882 76.7714 54.5546 76.4374 54.5546 76.0811V67.5086Z" fill="url(#paint5_linear_2_2690)"/>
<path d="M66.9684 69.7241C66.9684 70.2659 66.8651 70.7743 66.6584 71.2493C66.4591 71.7244 66.1822 72.14 65.8279 72.4963C65.4736 72.8525 65.0565 73.1346 64.5767 73.3424C64.1043 73.5428 63.5986 73.643 63.0598 73.643H59.4612V79.7773H58.0328V63.8124H63.0598C63.5986 63.8124 64.1043 63.9163 64.5767 64.1241C65.0565 64.3245 65.4736 64.6029 65.8279 64.9591C66.1822 65.3154 66.4591 65.7347 66.6584 66.2172C66.8651 66.6922 66.9684 67.2006 66.9684 67.7424V69.7241ZM65.54 67.7424C65.54 67.3861 65.4736 67.0559 65.3407 66.7516C65.2078 66.4398 65.0233 66.1689 64.7871 65.9388C64.5583 65.7013 64.2888 65.5158 63.9788 65.3822C63.6761 65.2486 63.3476 65.1818 62.9933 65.1818H59.4612V72.2736H62.9933C63.3476 72.2736 63.6761 72.2068 63.9788 72.0732C64.2888 71.9396 64.5583 71.7578 64.7871 71.5277C65.0233 71.2976 65.2078 71.0304 65.3407 70.7261C65.4736 70.4144 65.54 70.0804 65.54 69.7241V67.7424Z" fill="url(#paint6_linear_2_2690)"/>
<defs>
<linearGradient id="paint0_linear_2_2690" x1="18.9185" y1="53.32" x2="52.9765" y2="10.1429" gradientUnits="userSpaceOnUse">
<stop stop-color="#FFD098"/>
<stop offset="1" stop-color="#FF8064"/>
</linearGradient>
<linearGradient id="paint1_linear_2_2690" x1="16.8349" y1="79.9959" x2="21.0693" y2="59.3114" gradientUnits="userSpaceOnUse">
<stop stop-color="#FFD098"/>
<stop offset="1" stop-color="#FF8064"/>
</linearGradient>
<linearGradient id="paint2_linear_2_2690" x1="16.8349" y1="79.9959" x2="21.0693" y2="59.3114" gradientUnits="userSpaceOnUse">
<stop stop-color="#FFD098"/>
<stop offset="1" stop-color="#FF8064"/>
</linearGradient>
<linearGradient id="paint3_linear_2_2690" x1="16.8349" y1="79.9959" x2="21.0693" y2="59.3114" gradientUnits="userSpaceOnUse">
<stop stop-color="#FFD098"/>
<stop offset="1" stop-color="#FF8064"/>
</linearGradient>
<linearGradient id="paint4_linear_2_2690" x1="16.8349" y1="79.9959" x2="21.0693" y2="59.3114" gradientUnits="userSpaceOnUse">
<stop stop-color="#FFD098"/>
<stop offset="1" stop-color="#FF8064"/>
</linearGradient>
<linearGradient id="paint5_linear_2_2690" x1="16.8349" y1="79.9959" x2="21.0693" y2="59.3114" gradientUnits="userSpaceOnUse">
<stop stop-color="#FFD098"/>
<stop offset="1" stop-color="#FF8064"/>
</linearGradient>
<linearGradient id="paint6_linear_2_2690" x1="16.8349" y1="79.9959" x2="21.0693" y2="59.3114" gradientUnits="userSpaceOnUse">
<stop stop-color="#FFD098"/>
<stop offset="1" stop-color="#FF8064"/>
</linearGradient>
</defs>
</svg>
