<svg width="20" height="20" viewBox="0 0 20 20" fill="none" xmlns="http://www.w3.org/2000/svg">
<path d="M17.8847 13.7264L16.871 12.5685C16.1276 11.7053 15.6996 10.6316 15.6996 9.51583V7.36845C15.6996 4.82107 13.7848 2.67369 11.2168 2.14738V1.13685C11.2168 0.505265 10.6761 0 10.0003 0C9.32454 0 8.7839 0.505265 8.7839 1.13685V2.14738C6.21584 2.67369 4.30107 4.80002 4.30107 7.36845V9.51583C4.30107 10.6316 3.89559 11.7053 3.12968 12.5685L2.11597 13.7264C1.41764 14.5264 2.02587 15.7474 3.12968 15.7474H16.8485C17.9748 15.7474 18.583 14.5264 17.8847 13.7264Z" fill="#888C97"/>
<path d="M10.0004 20C11.6223 20 12.9289 18.7789 12.9289 17.2631H7.07191C7.07191 18.7789 8.37846 20 10.0004 20Z" fill="#888C97"/>
</svg>
