<svg width="20" height="20" viewBox="0 0 20 20" fill="none" xmlns="http://www.w3.org/2000/svg">
<path fill-rule="evenodd" clip-rule="evenodd" d="M18.8815 2.86691C18.7991 2.79929 18.7001 2.75438 18.5943 2.73625C18.4885 2.71812 18.3798 2.72754 18.2789 2.76376C15.0986 3.89048 5.31859 7.41606 1.32049 8.83386C1.19725 8.87518 1.09069 8.95423 1.01669 9.05942C0.942682 9.16462 0.905102 9.29063 0.909387 9.4184C0.913672 9.54618 0.959612 9.66894 1.04051 9.76913C1.1214 9.86932 1.23293 9.94171 1.35867 9.97498C3.15208 10.4867 5.50511 11.2046 5.50511 11.2046C5.50511 11.2046 6.60506 14.3923 7.17895 16.0167C7.21348 16.1178 7.27303 16.2092 7.35234 16.2821C7.43164 16.355 7.52819 16.4076 7.63326 16.4348C7.74072 16.4619 7.85331 16.4624 7.961 16.4362C8.06869 16.4099 8.16811 16.3577 8.25021 16.2844C9.16844 15.4487 10.5935 14.1576 10.5935 14.1576C10.5935 14.1576 13.3003 16.0636 14.8355 17.1106C14.956 17.1931 15.095 17.2463 15.2406 17.2651C15.3863 17.2839 15.5343 17.2679 15.6724 17.2188C15.8088 17.1703 15.9306 17.0888 16.0267 16.9822C16.1227 16.8756 16.1901 16.7473 16.2225 16.6085C16.8824 13.6368 18.4797 6.1203 19.0776 3.41615C19.1002 3.31576 19.0939 3.21107 19.0592 3.11402C19.0246 3.01698 18.9631 2.93146 18.8815 2.86691ZM15.7634 5.59937L8.04927 12.2797L7.76718 14.8292L6.49498 10.8011C6.49498 10.8011 12.2578 7.26579 15.5051 5.27524C15.5506 5.24754 15.6048 5.23726 15.6576 5.2459C15.7104 5.25453 15.7581 5.28177 15.792 5.32246C15.8248 5.36324 15.8402 5.41472 15.8348 5.46642C15.8295 5.51812 15.8039 5.56591 15.7634 5.59937Z" fill="#575D70"/>
</svg>
