<svg width="20" height="20" viewBox="0 0 20 20" fill="none" xmlns="http://www.w3.org/2000/svg">
<path d="M18.174 5.8671C17.2277 5.8671 16.3546 5.5536 15.6534 5.02472C14.8492 4.41845 14.2715 3.52912 14.0674 2.50409C14.0169 2.25083 13.9897 1.98947 13.9871 1.72164H11.2838V9.10833L11.2806 13.1544C11.2806 14.2361 10.5762 15.1532 9.59973 15.4758C9.31635 15.5694 9.0103 15.6138 8.69162 15.5963C8.28484 15.5739 7.90366 15.4512 7.57234 15.253C6.86729 14.8313 6.38927 14.0664 6.37631 13.1913C6.35591 11.8236 7.46158 10.7085 8.82829 10.7085C9.09807 10.7085 9.35716 10.7526 9.59973 10.8326V8.81361V8.08783C9.34388 8.04994 9.08349 8.03018 8.82019 8.03018C7.32426 8.03018 5.92517 8.652 4.92508 9.77225C4.16918 10.6188 3.71577 11.6989 3.64582 12.8315C3.55416 14.3193 4.09858 15.7336 5.15437 16.7771C5.30951 16.9303 5.47241 17.0725 5.64276 17.2036C6.54796 17.9003 7.6546 18.2779 8.82019 18.2779C9.08349 18.2779 9.34388 18.2585 9.59973 18.2206C10.6886 18.0593 11.6932 17.5609 12.486 16.7771C13.4602 15.8143 13.9985 14.536 14.0043 13.1754L13.9904 7.1334C14.4551 7.49192 14.9632 7.78858 15.5086 8.01885C16.3568 8.37672 17.2562 8.55808 18.1818 8.55776V6.59482V5.86645C18.1825 5.8671 18.1747 5.8671 18.174 5.8671Z" fill="#575D70"/>
</svg>
