<svg width="20" height="20" viewBox="0 0 20 20" fill="none" xmlns="http://www.w3.org/2000/svg">
<path d="M19.0909 4.44923C18.4147 4.74126 17.6943 4.93482 16.9431 5.02881C17.7159 4.57454 18.3056 3.8607 18.5829 3.00028C17.8625 3.42322 17.067 3.72196 16.2193 3.88867C15.5352 3.17147 14.5602 2.72727 13.4966 2.72727C11.4329 2.72727 9.77156 4.3765 9.77156 6.39832C9.77156 6.68923 9.79656 6.96895 9.85792 7.23524C6.75906 7.08643 4.01701 5.62406 2.17497 3.39636C1.85338 3.94573 1.66474 4.57454 1.66474 5.25147C1.66474 6.52252 2.32951 7.64923 3.32042 8.30154C2.72156 8.29035 2.13406 8.11916 1.63633 7.84951C1.63633 7.8607 1.63633 7.87524 1.63633 7.88979C1.63633 9.67329 2.92838 11.1547 4.62269 11.4959C4.31928 11.5776 3.9886 11.6168 3.64542 11.6168C3.40678 11.6168 3.16588 11.6034 2.93974 11.5541C3.42269 13.0076 4.79315 14.0761 6.42269 14.1108C5.15451 15.0876 3.54428 15.6761 1.8011 15.6761C1.49542 15.6761 1.20224 15.6627 0.909058 15.6257C2.56019 16.6741 4.51701 17.2727 6.62724 17.2727C13.4863 17.2727 17.2363 11.6783 17.2363 6.82909C17.2363 6.66685 17.2306 6.51021 17.2227 6.35468C17.9625 5.83776 18.5841 5.19217 19.0909 4.44923Z" fill="#575D70"/>
</svg>
