<svg width="20" height="20" viewBox="0 0 20 20" fill="none" xmlns="http://www.w3.org/2000/svg">
<path fill-rule="evenodd" clip-rule="evenodd" d="M17.2106 11.4765C17.8956 12.0759 18.548 12.708 19.1652 13.3703C19.4361 13.671 19.6722 13.998 19.8695 14.3464C20.1378 14.8505 19.8983 15.4048 19.4288 15.4321H16.511C16.1635 15.4572 15.8146 15.4044 15.4925 15.2782C15.1704 15.1519 14.8842 14.9556 14.6569 14.7052C14.2544 14.3101 13.8808 13.8922 13.4927 13.4789C13.3397 13.3097 13.1641 13.1603 12.9704 13.0341C12.8976 12.9718 12.8098 12.927 12.7146 12.9041C12.6195 12.8813 12.5199 12.8809 12.4245 12.9028C12.3292 12.9247 12.2408 12.9685 12.1673 13.0301C12.0938 13.0917 12.0373 13.1697 12.0026 13.2567C11.7969 13.6667 11.6906 14.115 11.6913 14.569C11.6625 15.2321 11.4564 15.4048 10.7617 15.4321C9.31487 15.5426 7.86599 15.2436 6.5983 14.5735C5.487 13.9246 4.53083 13.0633 3.79081 12.0442C2.32784 10.0607 1.09111 7.93552 0.101608 5.70445C-0.133153 5.20489 0.0393573 4.93663 0.614284 4.92301C1.56291 4.90484 2.51631 4.90938 3.46494 4.92301C3.6437 4.92656 3.81667 4.98424 3.95878 5.0871C4.10089 5.18997 4.20484 5.33302 4.25553 5.49556C4.75937 6.71241 5.40883 7.87029 6.19113 8.94684C6.38408 9.24278 6.6305 9.50422 6.91927 9.71896C6.97574 9.77478 7.04742 9.81449 7.1263 9.83427C7.20518 9.85405 7.28823 9.85322 7.36644 9.83116C7.44465 9.80911 7.51496 9.76708 7.56961 9.70965C7.62427 9.65222 7.66118 9.5812 7.67629 9.5052C7.76944 9.27366 7.826 9.0304 7.84402 8.78319C7.93112 7.93805 7.915 7.08627 7.79607 6.24462C7.77844 6.00708 7.67655 5.78207 7.50692 5.60643C7.33728 5.43079 7.10991 5.31492 6.86183 5.27736C6.58395 5.2274 6.6223 5.12753 6.76124 4.97312C6.85986 4.83662 6.99321 4.72577 7.14899 4.65115C7.30477 4.57652 7.47787 4.54034 7.65231 4.54604H10.9486C11.4661 4.64141 11.581 4.86872 11.6481 5.36828L11.6529 8.89229C11.6481 9.08757 11.7535 9.65999 12.1176 9.79169C12.2478 9.81003 12.3807 9.7897 12.4982 9.7336C12.6157 9.6775 12.7121 9.58818 12.774 9.47814C13.535 8.65545 14.1615 7.72941 14.6329 6.73069C14.8533 6.29926 15.0449 5.84493 15.2318 5.39533C15.2759 5.24348 15.375 5.11112 15.5116 5.02146C15.6482 4.93181 15.8137 4.89054 15.9792 4.90482L19.1364 4.91414C19.2309 4.91188 19.3254 4.91656 19.4192 4.92789C19.9558 5.01417 20.0995 5.23672 19.9366 5.74081C19.6351 6.50075 19.2081 7.21043 18.6717 7.84342C18.1447 8.54734 17.5794 9.22826 17.0572 9.93672C16.5781 10.5861 16.6117 10.9089 17.2106 11.4765Z" fill="#575D70"/>
</svg>
