<svg width="20" height="20" viewBox="0 0 20 20" fill="none" xmlns="http://www.w3.org/2000/svg">
<path d="M18.7163 5.62788C18.5067 4.84913 17.8926 4.23526 17.1138 4.02557C15.691 3.63636 9.99976 3.63636 9.99976 3.63636C9.99976 3.63636 4.30872 3.63636 2.88593 4.01081C2.12211 4.22028 1.493 4.84925 1.28348 5.62788C0.909058 7.05023 0.909058 10 0.909058 10C0.909058 10 0.909058 12.9646 1.28348 14.3721C1.49322 15.1508 2.10712 15.7646 2.88605 15.9743C4.3237 16.3636 9.99998 16.3636 9.99998 16.3636C9.99998 16.3636 15.691 16.3636 17.1138 15.9892C17.8927 15.7796 18.5067 15.1657 18.7165 14.3871C19.0908 12.9646 19.0908 10.015 19.0908 10.015C19.0908 10.015 19.1058 7.05023 18.7163 5.62788ZM8.18779 12.7251V7.2749L12.9204 10L8.18779 12.7251Z" fill="#575D70"/>
</svg>
